<svg xmlns="http://www.w3.org/2000/svg" xmlns:xlink="http://www.w3.org/1999/xlink" width="15" height="16" version="1.1" viewBox="0 0 15 16"><title>containers</title><desc>Created with Sketch.</desc><g id="Kotsadm" fill="none" fill-rule="evenodd" stroke="none" stroke-width="1"><g id="main_spritesheet" transform="translate(0.000000, -341.000000)"><g id="containers" transform="translate(0.000000, 341.000000)"><polygon id="Fill-1" fill="#00C4F4" points=".376 3.537 .375 11.372 7.282 14.987 14.039 11.374 14.038 3.552 7.282 .412"/><path id="Fill-2" fill="#344E55" d="M7.2837,0.0004 L0.0007,3.2954 L-0.0003,11.5984 L7.2837,15.4124 L14.4137,11.5994 L14.4137,7.4564 L14.4127,3.3134 L7.2837,0.0004 Z M0.7497,11.1454 L0.7507,3.7794 L7.2797,0.8244 L13.6627,3.7924 L13.6637,11.1494 L7.2797,14.5634 L0.7497,11.1454 Z"/><g id="Group-9" transform="translate(0.000000, 3.412000)"><polygon id="Fill-3" fill="#01A5CA" points="1.856 8.306 .757 7.723 .767 .594 7.06 3.614"/><polyline id="Stroke-5" stroke="#344E55" stroke-width=".5" points=".374 .131 7.284 3.491 13.984 .131"/><line id="Stroke-7" x1="7.284" x2="7.284" y1="11.593" y2="3.491" stroke="#344E55" stroke-width=".5"/></g><polygon id="Fill-10" fill="#00AAD1" points="8.664 7.564 8.664 13.229 9.543 12.822 9.543 7.003"/><polygon id="Stroke-11" stroke="#344E55" stroke-width=".25" points="8.664 7.564 9.544 7.003 9.544 12.822 8.664 13.229"/><polygon id="Fill-12" fill="#00AAD1" points="10.318 6.665 10.318 12.33 11.196 11.923 11.196 6.104"/><polygon id="Stroke-13" stroke="#344E55" stroke-width=".25" points="10.317 6.665 11.196 6.104 11.196 11.923 10.317 12.33"/><polygon id="Fill-14" fill="#00AAD1" points="11.96 5.784 11.96 11.449 12.839 11.043 12.839 5.223"/><polygon id="Stroke-15" stroke="#344E55" stroke-width=".25" points="11.96 5.784 12.84 5.223 12.84 11.042 11.96 11.448"/><polygon id="Fill-16" fill="#01AED5" points="1.856 11.719 7.025 7.058 7.06 14.447"/></g></g></g></svg>