<svg xmlns="http://www.w3.org/2000/svg" xmlns:xlink="http://www.w3.org/1999/xlink" width="16" height="16" version="1.1" viewBox="0 0 16 16"><title>cpu-cores</title><desc>Created with Sketch.</desc><g id="Kotsadm" fill="none" fill-rule="evenodd" stroke="none" stroke-width="1"><g id="main_spritesheet" fill="#3023AE" transform="translate(-29.000000, -342.000000)"><g id="cpu-cores" transform="translate(29.000000, 342.000000)"><path id="Rectangle-14" fill-rule="nonzero" d="M3,2.5 C2.72385763,2.5 2.5,2.72385763 2.5,3 L2.5,13 C2.5,13.2761424 2.72385763,13.5 3,13.5 L13,13.5 C13.2761424,13.5 13.5,13.2761424 13.5,13 L13.5,3 C13.5,2.72385763 13.2761424,2.5 13,2.5 L3,2.5 Z M3,1.5 L13,1.5 C13.8284271,1.5 14.5,2.17157288 14.5,3 L14.5,13 C14.5,13.8284271 13.8284271,14.5 13,14.5 L3,14.5 C2.17157288,14.5 1.5,13.8284271 1.5,13 L1.5,3 C1.5,2.17157288 2.17157288,1.5 3,1.5 Z"/><path id="Rectangle-14" fill-rule="nonzero" d="M4.9,4.9 L4.9,11.1 L11.1,11.1 L11.1,4.9 L4.9,4.9 Z M12.1,3.9 L12.1,12.1 L3.9,12.1 L3.9,3.9 L12.1,3.9 Z"/><g id="Group-2" transform="translate(4.000000, 13.000000)"><rect id="Rectangle-15" width="1" height="2.4" x="2.4" y=".6" rx=".5"/><rect id="Rectangle-15-Copy-7" width="1" height="2.4" x="0" y=".6" rx=".5"/><rect id="Rectangle-15-Copy-4" width="1" height="2.4" x="4.8" y=".6" rx=".5"/><rect id="Rectangle-15-Copy" width="1" height="2.4" x="7.2" y=".6" rx=".5"/></g><g id="Group-22-Copy-2" transform="translate(4.000000, 0.000000)"><rect id="Rectangle-15" width="1" height="2.4" x="2.4" y="0" rx=".5"/><rect id="Rectangle-15-Copy-7" width="1" height="2.4" x="0" y="0" rx=".5"/><rect id="Rectangle-15-Copy-4" width="1" height="2.4" x="4.8" y="0" rx=".5"/><rect id="Rectangle-15-Copy" width="1" height="2.4" x="7.2" y="0" rx=".5"/></g><g id="Group" transform="translate(0.000000, 4.000000)"><rect id="Rectangle-15" width="1" height="2.4" x=".7" y="1.7" rx=".5" transform="translate(1.200000, 2.900000) rotate(90.000000) translate(-1.200000, -2.900000)"/><rect id="Rectangle-15-Copy-7" width="1" height="2.4" x=".7" y="-.7" rx=".5" transform="translate(1.200000, 0.500000) rotate(90.000000) translate(-1.200000, -0.500000)"/><rect id="Rectangle-15-Copy-4" width="1" height="2.4" x=".7" y="4.1" rx=".5" transform="translate(1.200000, 5.300000) rotate(90.000000) translate(-1.200000, -5.300000)"/><rect id="Rectangle-15-Copy" width="1" height="2.4" x=".7" y="6.5" rx=".5" transform="translate(1.200000, 7.700000) rotate(90.000000) translate(-1.200000, -7.700000)"/></g><g id="Group-22-Copy-4" transform="translate(14.500000, 8.500000) rotate(90.000000) translate(-14.500000, -8.500000) translate(10.000000, 7.000000)"><rect id="Rectangle-15" width="1" height="2.4" x="2.4" y="0" rx=".5"/><rect id="Rectangle-15-Copy-7" width="1" height="2.4" x="0" y="0" rx=".5"/><rect id="Rectangle-15-Copy-4" width="1" height="2.4" x="4.8" y="0" rx=".5"/><rect id="Rectangle-15-Copy" width="1" height="2.4" x="7.2" y="0" rx=".5"/></g></g></g></g></svg>