<svg xmlns="http://www.w3.org/2000/svg" xmlns:xlink="http://www.w3.org/1999/xlink" width="13" height="16" version="1.1" viewBox="0 0 13 16"><title>Group-5</title><desc>Created with Sketch.</desc><g id="Kotsadm" fill="none" fill-rule="evenodd" stroke="none" stroke-width="1"><g id="main_spritesheet" transform="translate(-29.000000, -360.000000)"><g id="Group-5" transform="translate(29.000000, 360.000000)"><path id="Rectangle-11-Copy-path" fill="#FFF" fill-rule="nonzero" d="M1.48477157,0.993103448 C1.21143267,0.993103448 0.989847716,1.21541723 0.989847716,1.48965517 L0.989847716,14.5103448 C0.989847716,14.7845828 1.21143267,15.0068966 1.48477157,15.0068966 L11.5152284,15.0068966 C11.7885673,15.0068966 12.0101523,14.7845828 12.0101523,14.5103448 L12.0101523,1.48965517 C12.0101523,1.21541723 11.7885673,0.993103448 11.5152284,0.993103448 L1.48477157,0.993103448 Z"/><path id="Rectangle-11-Copy" fill="#76B6E4" fill-rule="nonzero" d="M1.48477157,0.993103448 C1.21143267,0.993103448 0.989847716,1.21541723 0.989847716,1.48965517 L0.989847716,14.5103448 C0.989847716,14.7845828 1.21143267,15.0068966 1.48477157,15.0068966 L11.5152284,15.0068966 C11.7885673,15.0068966 12.0101523,14.7845828 12.0101523,14.5103448 L12.0101523,1.48965517 C12.0101523,1.21541723 11.7885673,0.993103448 11.5152284,0.993103448 L1.48477157,0.993103448 Z M1.48477157,0 L11.5152284,0 C12.3352451,0 13,0.666941338 13,1.48965517 L13,14.5103448 C13,15.3330587 12.3352451,16 11.5152284,16 L1.48477157,16 C0.664754877,16 0,15.3330587 0,14.5103448 L0,1.48965517 C0,0.666941338 0.664754877,0 1.48477157,0 Z"/><g id="Oval-11" transform="translate(2.600000, 2.666667)"><g id="path-16-link" fill="#FFF" transform="translate(0.000000, 0.888889)"><ellipse id="path-16" cx="4.008" cy="3.556" rx="3.467" ry="3.556"/></g><ellipse id="Oval" cx="4.008" cy="4.444" stroke="#76B6E4" rx="3.9" ry="4"/></g><g id="Oval-11" transform="translate(4.333333, 5.333333)"><g id="path-17-link" fill="#FFF" transform="translate(0.866667, 0.000000)"><ellipse id="path-17" cx="1.408" cy="1.778" rx="1.029" ry="1.056"/></g><ellipse id="Oval" cx="2.275" cy="1.778" stroke="#76B6E4" rx="1.462" ry="1.5"/></g><circle id="Oval-12" cx="2.6" cy="2.641" r="1" fill="#76B6E4"/><circle id="Oval-12-Copy-2" cx="2.559" cy="13.267" r="1" fill="#76B6E4"/><circle id="Oval-12-Copy" cx="10.346" cy="2.587" r="1" fill="#76B6E4"/><circle id="Oval-12-Copy-3" cx="10.346" cy="13.279" r="1" fill="#76B6E4"/></g></g></g></svg>