<svg xmlns="http://www.w3.org/2000/svg" xmlns:xlink="http://www.w3.org/1999/xlink" width="13" height="16" version="1.1" viewBox="0 0 13 16"><title>text-analyze icon</title><desc>Created with Sketch.</desc><g id="Kotsadm" fill="none" fill-rule="evenodd" stroke="none" stroke-width="1"><g id="main_spritesheet" fill="#323232" fill-rule="nonzero" transform="translate(-135.000000, -359.000000)"><path id="text-analyze-icon" d="M144.732865,375 L144.732865,374.563422 L144.195958,374.563422 C143.594318,374.563422 143.148799,374.39823 142.859402,374.067847 C142.653779,373.823992 142.550967,373.210423 142.550967,372.227139 L142.550967,372.227139 L142.550967,360.00295 L144.732865,360.00295 C145.372583,360.00295 145.888547,360.111111 146.280756,360.327434 C146.672964,360.543756 146.987112,360.880039 147.223199,361.336283 C147.367897,361.619469 147.482132,362.091445 147.565905,362.752212 L147.565905,362.752212 L148,362.752212 L147.828647,359 L135.182777,359 L135,362.752212 L135.434095,362.752212 C135.487405,362.028515 135.65495,361.454277 135.936731,361.029499 C136.218512,360.60472 136.557411,360.317601 136.953427,360.168142 C137.258055,360.058014 137.772115,360.00295 138.495606,360.00295 L138.495606,360.00295 L140.357645,360.00295 L140.357645,372.227139 C140.357645,373.123894 140.273872,373.698132 140.106327,373.949853 C139.832162,374.358899 139.367604,374.563422 138.712654,374.563422 L138.712654,374.563422 L138.164323,374.563422 L138.164323,375 L144.732865,375 Z"/></g></g></svg>