<svg xmlns="http://www.w3.org/2000/svg" width="56" height="56" fill="none" viewBox="0 0 56 56"><g filter="url(#filter0_d)"><circle cx="28" cy="28" r="25" fill="#fff"/></g><path fill="#8C3123" d="M19.6428 20.2794L18 21.1042V35.5377L19.6428 36.3557L19.6563 36.3422V20.2929L19.6428 20.2794Z"/><path fill="#E05243" d="M28.445 34.2599L19.6429 36.3557V20.2794L28.445 22.3278V34.2599Z"/><path fill="#8C3123" d="M24.4766 30.981L28.2083 31.4542L28.2286 31.4001L28.2556 25.2819L28.2083 25.2346L24.4766 25.7011V30.981Z"/><path fill="#8C3123" d="M28.2081 34.287L36.7668 36.3624L36.7803 36.3422V20.2929L36.7668 20.2794L28.2081 22.3549V34.287Z"/><path fill="#E05243" d="M31.9399 30.981L28.2081 31.4542V25.2346L31.9399 25.7011V30.981Z"/><path fill="#5E1F18" d="M31.9401 23.1459L28.2083 23.8287L24.4766 23.1459L28.2015 22.1724L31.9401 23.1459Z"/><path fill="#F2B0A9" d="M31.9401 33.5299L28.2083 32.8403L24.4766 33.5299L28.2015 34.571L31.9401 33.5299Z"/><path fill="#8C3123" d="M24.4766 23.1458L28.2083 22.2263L28.2354 22.2128V16.027L28.2083 16L24.4766 17.8659V23.1458Z"/><path fill="#E05243" d="M31.9399 23.1458L28.2081 22.2263V16L31.9399 17.8659V23.1458Z"/><path fill="#8C3123" d="M28.2083 40.6755L24.4766 38.8097V33.5298L28.2083 34.4492L28.2624 34.5168L28.2489 40.5674L28.2083 40.6755Z"/><path fill="#E05243" d="M28.2081 40.6755L31.9399 38.8097V33.5298L28.2081 34.4492V40.6755Z"/><path fill="#E05243" d="M36.767 20.2794L38.4165 21.1042V35.5377L36.767 36.3624V20.2794Z"/><defs><filter id="filter0_d" width="56" height="56" x="0" y="0" color-interpolation-filters="sRGB" filterUnits="userSpaceOnUse"><feFlood flood-opacity="0" result="BackgroundImageFix"/><feColorMatrix in="SourceAlpha" type="matrix" values="0 0 0 0 0 0 0 0 0 0 0 0 0 0 0 0 0 0 127 0"/><feOffset/><feGaussianBlur stdDeviation="1.5"/><feColorMatrix type="matrix" values="0 0 0 0 0 0 0 0 0 0 0 0 0 0 0 0 0 0 0.16 0"/><feBlend in2="BackgroundImageFix" mode="normal" result="effect1_dropShadow"/><feBlend in="SourceGraphic" in2="effect1_dropShadow" mode="normal" result="shape"/></filter></defs></svg>